
<svg version="1.1" xmlns="http://www.w3.org/2000/svg" xmlns:xlink="http://www.w3.org/1999/xlink" x="0px" y="0px"
	 viewBox="0 0 1280 800" style="enable-background:new 0 0 1280 800;" xml:space="preserve">

	 <defs>

		 <style type="text/css">

		 		@-webkit-keyframes dash {
		 			from { stroke-dashoffset: 1500; }
		 			to{ stroke-dashoffset: 0; }
		 		}
		 		@-webkit-keyframes fill {
		 			from { fill-opacity: 0; }
		 			to { fill-opacity: 1; }
		 		}
		 		@-moz-keyframes dash {
		 			from { stroke-dashoffset: 1500; }
		 			to{ stroke-dashoffset: 0; }
		 		}
		 		@-moz-keyframes fill {
		 			from { fill-opacity: 0; }
		 			to { fill-opacity: 1; }
		 		}
		 		@-o-keyframes dash {
		 			from { stroke-dashoffset: 1500; }
		 			to{ stroke-dashoffset: 0; }
		 		}
		 		@-o-keyframes fill {
		 			from { fill-opacity: 0; }
		 			to { fill-opacity: 1; }
		 		}
		 		@keyframes dash {
		 			from { stroke-dashoffset: 1500; }
		 			to{ stroke-dashoffset: 0; }
		 		}
		 		@keyframes fill {
		 			from { fill-opacity: 0; }
		 			to { fill-opacity: 1; }
		 		}

			 .b1 {
				 fill: #E5E5E5;
				 fill-opacity: 0;
				 stroke:#E5E5E5;
				 stroke-width: 1;
				 stroke-linejoin:round;
				 stroke-miterlimit:10;
				 stroke-dasharray: 1500;
				 stroke-dashoffset: 1500;

				 animation-name: dash, fill;
				 -o-animation-name: dash, fill;
				 -moz-animation-name: dash, fill;
				 -webkit-animation-name: dash, fill;

				 animation-duration: 5s, 7s;
				 -o-animation-duration: 5s, 7s;
				 -moz-animation-duration: 5s, 7s;
				 -webkit-animation-duration: 5s, 7s;

				 animation-delay: 5s, 8s;
				 -o-animation-delay: 5s, 8s;
				 -moz-animation-delay: 5s, 8s;
				 -webkit-animation-delay: 5s, 8s;

				 animation-timing-function: ease-in-out;
				 animation-fill-mode: forwards;
			 }

			 .b2 {
				 fill: #E5E5E5;
				 fill-opacity: 0;
				 stroke:#E5E5E5;
				 stroke-width: 1;
				 stroke-linejoin:round;
				 stroke-miterlimit:10;
				 stroke-dasharray: 1500;
				 stroke-dashoffset: 1500;

				 animation-name: dash, fill;
				 -o-animation-name: dash, fill;
				 -moz-animation-name: dash, fill;
				 -webkit-animation-name: dash, fill;

				 animation-duration: 5s, 7s;
				 -o-animation-duration: 5s, 7s;
				 -moz-animation-duration: 5s, 7s;
				 -webkit-animation-duration: 5s, 7s;

				 animation-delay: 1.9s, 8s;
				 -o-animation-delay: 1.9s, 8s;
				 -moz-animation-delay: 1.9s, 8s;
				 -webkit-animation-delay: 1.9s, 8s;

				 animation-timing-function: ease-in-out;
				 animation-fill-mode: forwards;
			 }

			 .b3 {
				 fill: #E5E5E5;
				 fill-opacity: 0;
				 stroke:#E5E5E5;
				 stroke-width: 1;
				 stroke-linejoin:round;
				 stroke-miterlimit:10;
				 stroke-dasharray: 1500;
				 stroke-dashoffset: 1500;

				 animation-name: dash, fill;
				 -o-animation-name: dash, fill;
				 -moz-animation-name: dash, fill;
				 -webkit-animation-name: dash, fill;

				 animation-duration: 5s, 7s;
				 -o-animation-duration: 5s, 7s;
				 -moz-animation-duration: 5s, 7s;
				 -webkit-animation-duration: 5s, 7s;

				 animation-delay: 3s, 8s;
				 -o-animation-delay: 3s, 8s;
				 -moz-animation-delay: 3s, 8s;
				 -webkit-animation-delay: 3s, 8s;

				 animation-timing-function: ease-in-out;
				 animation-fill-mode: forwards;
			 }

			 .b4 {
				 fill: #E5E5E5;
				 fill-opacity: 0;
				 stroke:#E5E5E5;
				 stroke-width: 1;
				 stroke-linejoin:round;
				 stroke-miterlimit:10;
				 stroke-dasharray: 1500;
				 stroke-dashoffset: 1500;

				 animation-name: dash, fill;
				 -o-animation-name: dash, fill;
				 -moz-animation-name: dash, fill;
				 -webkit-animation-name: dash, fill;

				 animation-duration: 7s, 7s;
				 -o-animation-duration: 7s, 7s;
				 -moz-animation-duration: 7s, 7s;
				 -webkit-animation-duration: 7s, 7s;

				 animation-delay: 2.3s, 8s;
				 -o-animation-delay: 2.3s, 8s;
				 -moz-animation-delay: 2.3s, 8s;
				 -webkit-animation-delay: 2.3s, 8s;

				 animation-timing-function: ease-in-out;
				 animation-fill-mode: forwards;
			 }

			 .b5 {
				 fill: #E5E5E5;
				 fill-opacity: 0;
				 stroke:#E5E5E5;
				 stroke-width: 1;
				 stroke-linejoin:round;
				 stroke-miterlimit:10;
				 stroke-dasharray: 1500;
				 stroke-dashoffset: 1500;

				 animation-name: dash, fill;
				 -o-animation-name: dash, fill;
				 -moz-animation-name: dash, fill;
				 -webkit-animation-name: dash, fill;

				 animation-duration: 5s, 7s;
				 -o-animation-duration: 5s, 7s;
				 -moz-animation-duration: 5s, 7s;
				 -webkit-animation-duration: 5s, 7s;

				 animation-delay: 4s, 8s;
				 -o-animation-delay: 4s, 8s;
				 -moz-animation-delay: 4s, 8s;
				 -webkit-animation-delay: 4s, 8s;

				 animation-timing-function: ease-in-out;
				 animation-fill-mode: forwards;
			 }

			 .b6 {
				 fill: #E5E5E5;
				 fill-opacity: 0;
				 stroke:#E5E5E5;
				 stroke-width: 1;
				 stroke-linejoin:round;
				 stroke-miterlimit:10;
				 stroke-dasharray: 1500;
				 stroke-dashoffset: 1500;

				 animation-name: dash, fill;
				 -o-animation-name: dash, fill;
				 -moz-animation-name: dash, fill;
				 -webkit-animation-name: dash, fill;

				 animation-duration: 5s, 7s;
				 -o-animation-duration: 5s, 7s;
				 -moz-animation-duration: 5s, 7s;
				 -webkit-animation-duration: 5s, 7s;

				 animation-delay: 6s, 8s;
				 -o-animation-delay: 6s, 8s;
				 -moz-animation-delay: 6s, 8s;
				 -webkit-animation-delay: 6s, 8s;

				 animation-timing-function: ease-in-out;
				 animation-fill-mode: forwards;
			 }

			 .b7 {
				 fill: #E5E5E5;
				 fill-opacity: 0;
				 stroke:#E5E5E5;
				 stroke-width: 1;
				 stroke-linejoin:round;
				 stroke-miterlimit:10;
				 stroke-dasharray: 1500;
				 stroke-dashoffset: 1500;

				 animation-name: dash, fill;
				 -o-animation-name: dash, fill;
				 -moz-animation-name: dash, fill;
				 -webkit-animation-name: dash, fill;

				 animation-duration: 5s, 7s;
				 -o-animation-duration: 5s, 7s;
				 -moz-animation-duration: 5s, 7s;
				 -webkit-animation-duration: 5s, 7s;

				 animation-delay: 4.6s, 8s;
				 -o-animation-delay: 4.6s, 8s;
				 -moz-animation-delay: 4.6s, 8s;
				 -webkit-animation-delay: 4.6s, 8s;

				 animation-timing-function: ease-in-out;
				 animation-fill-mode: forwards;
			 }

			 .b8 {
				 fill: #E5E5E5;
				 fill-opacity: 0;
				 stroke:#E5E5E5;
				 stroke-width: 1;
				 stroke-linejoin:round;
				 stroke-miterlimit:10;
				 stroke-dasharray: 1500;
				 stroke-dashoffset: 1500;

				 animation-name: dash, fill;
				 -o-animation-name: dash, fill;
				 -moz-animation-name: dash, fill;
				 -webkit-animation-name: dash, fill;

				 animation-duration: 5s, 7s;
				 -o-animation-duration: 5s, 7s;
				 -moz-animation-duration: 5s, 7s;
				 -webkit-animation-duration: 5s, 7s;

				 animation-delay: 1.5s, 8s;
				 -o-animation-delay: 1.5s, 8s;
				 -moz-animation-delay: 1.5s, 8s;
				 -webkit-animation-delay: 1.5s, 8s;

				 animation-timing-function: ease-in-out;
				 animation-fill-mode: forwards;
			 }

			 .b9 {
				 fill: #E5E5E5;
				 fill-opacity: 0;
				 stroke:#E5E5E5;
				 stroke-width: 1;
				 stroke-linejoin:round;
				 stroke-miterlimit:10;
				 stroke-dasharray: 1500;
				 stroke-dashoffset: 1500;

				 animation-name: dash, fill;
				 -o-animation-name: dash, fill;
				 -moz-animation-name: dash, fill;
				 -webkit-animation-name: dash, fill;

				 animation-duration: 5s, 7s;
				 -o-animation-duration: 5s, 7s;
				 -moz-animation-duration: 5s, 7s;
				 -webkit-animation-duration: 5s, 7s;

				 animation-delay: 5.5s, 8s;
				 -o-animation-delay: 5.5s, 8s;
				 -moz-animation-delay: 5.5s, 8s;
				 -webkit-animation-delay: 5.5s, 8s;

				 animation-timing-function: ease-in-out;
				 animation-fill-mode: forwards;
			 }

			 .b10 {
				 fill: #E5E5E5;
				 fill-opacity: 0;
				 stroke:#E5E5E5;
				 stroke-width: 1;
				 stroke-linejoin:round;
				 stroke-miterlimit:10;
				 stroke-dasharray: 1500;
				 stroke-dashoffset: 1500;

				 animation-name: dash, fill;
				 -o-animation-name: dash, fill;
				 -moz-animation-name: dash, fill;
				 -webkit-animation-name: dash, fill;

				 animation-duration: 5s, 7s;
				 -o-animation-duration: 5s, 7s;
				 -moz-animation-duration: 5s, 7s;
				 -webkit-animation-duration: 5s, 7s;

				 animation-delay: 4s, 8s;
				 -o-animation-delay: 4s, 8s;
				 -moz-animation-delay: 4s, 8s;
				 -webkit-animation-delay: 4s, 8s;

				 animation-timing-function: ease-in-out;
				 animation-fill-mode: forwards;
			 }

			 .b11 {
				 fill: #E5E5E5;
				 fill-opacity: 0;
				 stroke:#E5E5E5;
				 stroke-width: 1;
				 stroke-linejoin:round;
				 stroke-miterlimit:10;
				 stroke-dasharray: 1500;
				 stroke-dashoffset: 1500;

				 animation-name: dash, fill;
				 -o-animation-name: dash, fill;
				 -moz-animation-name: dash, fill;
				 -webkit-animation-name: dash, fill;

				 animation-duration: 5s, 7s;
				 -o-animation-duration: 5s, 7s;
				 -moz-animation-duration: 5s, 7s;
				 -webkit-animation-duration: 5s, 7s;

				 animation-delay: 1s, 8s;
				 -o-animation-delay: 1s, 8s;
				 -moz-animation-delay: 1s, 8s;
				 -webkit-animation-delay: 1s, 8s;

				 animation-timing-function: ease-in-out;
				 animation-fill-mode: forwards;
			 }

			 .b12 {
				 fill: #E5E5E5;
				 fill-opacity: 0;
				 stroke:#E5E5E5;
				 stroke-width: 1;
				 stroke-linejoin:round;
				 stroke-miterlimit:10;
				 stroke-dasharray: 1500;
				 stroke-dashoffset: 1500;

				 animation-name: dash, fill;
				 -o-animation-name: dash, fill;
				 -moz-animation-name: dash, fill;
				 -webkit-animation-name: dash, fill;

				 animation-duration: 5s, 7s;
				 -o-animation-duration: 5s, 7s;
				 -moz-animation-duration: 5s, 7s;
				 -webkit-animation-duration: 5s, 7s;

				 animation-delay: 7s, 8s;
				 -o-animation-delay: 7s, 8s;
				 -moz-animation-delay: 7s, 8s;
				 -webkit-animation-delay: 7s, 8s;

				 animation-timing-function: ease-in-out;
				 animation-fill-mode: forwards;
			 }

			 .b13 {
				 fill: #E5E5E5;
				 fill-opacity: 0;
				 stroke:#E5E5E5;
				 stroke-width: 1;
				 stroke-linejoin:round;
				 stroke-miterlimit:10;
				 stroke-dasharray: 1500;
				 stroke-dashoffset: 1500;

				 animation-name: dash, fill;
				 -o-animation-name: dash, fill;
				 -moz-animation-name: dash, fill;
				 -webkit-animation-name: dash, fill;

				 animation-duration: 5s, 7s;
				 -o-animation-duration: 5s, 7s;
				 -moz-animation-duration: 5s, 7s;
				 -webkit-animation-duration: 5s, 7s;

				 animation-delay: 2s, 8s;
				 -o-animation-delay: 2s, 8s;
				 -moz-animation-delay: 2s, 8s;
				 -webkit-animation-delay: 2s, 8s;

				 animation-timing-function: ease-in-out;
				 animation-fill-mode: forwards;
			 }

			 .b14 {
				 fill: #E5E5E5;
				 fill-opacity: 0;
				 stroke:#E5E5E5;
				 stroke-width: 1;
				 stroke-linejoin:round;
				 stroke-miterlimit:10;
				 stroke-dasharray: 1500;
				 stroke-dashoffset: 1500;

				 animation-name: dash, fill;
				 -o-animation-name: dash, fill;
				 -moz-animation-name: dash, fill;
				 -webkit-animation-name: dash, fill;

				 animation-duration: 5s, 7s;
				 -o-animation-duration: 5s, 7s;
				 -moz-animation-duration: 5s, 7s;
				 -webkit-animation-duration: 5s, 7s;

				 animation-delay: 6s, 8s;
				 -o-animation-delay: 6s, 8s;
				 -moz-animation-delay: 6s, 8s;
				 -webkit-animation-delay: 6s, 8s;

				 animation-timing-function: ease-in-out;
				 animation-fill-mode: forwards;
			 }

			 .building {
			 	 transition: all 1s;
				 transform-origin: unset 100%;
				 position: relative;
				 z-index: 0;
			 }

			 .building:hover {
 				 fill: #FFFF66;
				 z-index: 1;
			 }

		 </style>
	 </defs>


		<path class="b1 building" d="M630.8,759.8v-0.2c0.2-0.1,0.3-0.3,0.3-0.5v-11c0-0.4-0.3-0.6-0.6-0.6h-6.1l-10-35.1c2.6-2.1,4.4-5.3,4.4-9
			c0-4.9-3-9-7.3-10.7c-3.8-26.7-5.8-70-6.5-92c2.1-2,3.4-5.3,3.4-9.1v-13.8c0-5.1-2.5-9.4-5.9-10.6v-14.1c0-0.9-1-1.6-2.1-1.6
			c-1.2,0-2.2,0.7-2.2,1.6v14.2c-3.3,1.4-5.7,5.6-5.7,10.6v13.8c0,3.7,1.3,7,3.4,9c-0.8,21.9-2.7,65.2-6.5,91.9
			c-4.5,1.6-7.7,5.8-7.7,10.8c0,3.8,1.8,7.1,4.6,9.2l-9.9,34.8h-6c-0.4,0-0.6,0.3-0.6,0.6v11c0,0.2,0.1,0.4,0.3,0.5v0.2L547.5,800
			h22.4c0,0,2.3-29.5,30.5-29.8c28.2,0.3,30.5,29.8,30.5,29.8h22.4L630.8,759.8z"/>

		<path class="b2 building" d="M903.8,685.8v-15.5h-2.3v-13.7h-2.5v-13.5h-2.3v-10.5h-1.7v-6h-2V622h-1.4v-3.6h-0.8c-0.1-0.4-0.3-1-0.8-1.4
			v-12.7h-1.3V617c-0.4,0.3-0.7,0.9-0.7,1.4H887v3.6h-1.4v4.6h-2v6h-1.7v10.6h-2.3v13.5H877v13.7h-2.4v15.4h-2.3v18.5h-46.1v-18.5
			h-2.3v-15.5h-2.4v-13.7h-2.5v-13.5h-2.3v-10.5h-1.7v-6h-2V622h-1.4v-3.6h-0.8c0-0.4-0.3-1-0.7-1.4v-12.7h-1.3V617
			c-0.4,0.3-0.7,0.9-0.8,1.3h-0.8v3.6h-1.4v4.6h-2v6H802v10.6h-2.3v13.5h-2.5v13.7h-2.3v15.4h-2.3V800h113.6V685.8H903.8z
			 M872.3,715.6v17.7l-19.1-17.7H872.3z M826.3,715.6h18.5l-18.5,18.3V715.6z M826.3,740.3l22.8-23.1l23.3,22.9v42.2h-46.1V740.3z
			 M826.1,797.2v-8.3h10.7v8.3H826.1z M843.4,797.2v-8.3h12v8.3H843.4z M861.9,797.2v-8.3h10.7v8.3H861.9z"/>

		<path class="b3 building" d="M365.2,726l-5.7,5.7l0,0c0,0,0,0-0.1,0l-4.2-4.2l-1.1,1.2l4.2,4.2c0,0.7,0.5,1.2,1.2,1.2
			c0.7,0,1.2-0.5,1.2-1.2c0,0,0,0,0,0l5.7-5.7L365.2,726z M372.4,793.9v-50.4h1V723h0.3v-1.6h-2.3v-2.4l0,0l-5.3-9.9h0v-6.9h-0.1
			c-0.4-1-6-17.2-6.4-19.6h-0.6c-0.4,2.5-6,18.7-6.4,19.6h-0.1v6.9l0,0l-5.3,9.9h0v2.4h-2.3v1.6h0.4v20.5h1v50.4h-4.1v6.1h34.2v-6.1
			H372.4z M359.4,743.1c-5.6,0-10.1-4.6-10.1-10.2c0-5.6,4.5-10.2,10.1-10.2s10.2,4.5,10.2,10.2S365,743.1,359.4,743.1z"/>

		<path class="b4 building" d="M788.8,790v-27.4h0.2l1.7-3.3v-3.2h-1.9v-14.4h0.2l1.7-3.2v-3.2h-2.5v-18.7h0l-2.8-23.4h-0.4v1.2l-2.8,22.2
			l0,0v18.7h-2.4v3.2l1.8,3.2h0.2v14.4h-1.9v3.2l1.8,3.2h0.2v24l-8.1-5.7v-22.1h0.2l1.4-2.6v-2.5h-1.6v-14.2h0.2l1.4-2.5v-2.5h-1.6
			V723h0.2l1.4-2.5v-2.5h-2V703h0l-2.1-18.4h-0.4v0.8l-2.2,17.6h0v14.9h-1.9v2.5l1.4,2.5h0.1v11.4h-1.6v2.5l1.4,2.5h0.1v14.2h-1.6
			v2.5l1.4,2.5h0.1v3.6l-1.9-0.3l-0.9-2.3H764v-3.7h0.2l1.3-2.4v-2.4H764v-11.1h0.2l1.3-2.4v-2.4H764v-10.7h0.2l1.3-2.4V720h-1.8
			v-14h0l-2.1-17.4h-0.3v0.9l-2.1,16.5h0v14h-1.8v2.4l1.3,2.4h0.1v10.7h-1.5v2.4l1.3,2.4h0.1v11.1h-1.6v2.4l1.4,2.4h0.2v3.6
			l-9.2-0.1v-6.8h-2.7c0,0-1-3.4-4.5-5.6c-3.5-2.2-6.1-2.2-6.1-2.2v-2.5h0.6c-0.6-1.9-2.2-3.4-4.3-3.8v-0.2h-0.1
			c0-0.2,0-0.5-0.2-0.6c-0.3-0.2-0.8-0.2-1.1,0c-0.2,0.2-0.2,0.5-0.2,0.6H731v0.2c-0.7,0.1-1.3,0.3-1.9,0.6v-4.6h-1.8
			c-2.2-5.6-7.9-9.9-14.9-10.9l-0.2-0.5c0.1-0.5,0.1-1.4-0.6-1.9c-0.6-0.4-0.9-0.7-1.1-0.9v-8.8l-0.8-2.6l-0.8,2.6v8.6
			c-0.3,0.3-0.5,0.5-1.2,1c-0.6,0.5-0.6,1.4-0.6,1.9l-0.6,0.4c-7.1,0.9-13,5.2-15.2,11h-1.8v4c-0.1,0-0.2,0-0.3,0v-0.2h-0.1
			c0-0.2,0-0.5-0.1-0.6c-0.3-0.2-0.9-0.2-1.1,0c-0.2,0.2-0.2,0.5-0.2,0.6h-0.2v0.2c-2.1,0.3-3.8,1.8-4.4,3.8h0.3l0,1.5
			c0,0-3.5,0.4-6.2,2.1c-4.2,2.6-4.3,6.5-4.3,6.5l-7.5,0.1v-1.4h-1.6v-11.1h0.2l1.3-2.4v-2.4h-1.5v-10.7h0.2l1.3-2.4V720h-1.8v-14h0
			l-2.1-16.5v-0.9h-0.3L659,706h0v14h-1.8v2.4l1.3,2.4h0.2v10.7h-1.5v2.4l1.3,2.4h0.2v11.1h-1.6v2.4l1.3,2.4h0.3v9.2h-4.9v-6.6h0.9
			l1.4-2.5v-2.5h-2.3v-14.2h0.2l1.4-2.5v-2.5h-1.5V723h0.2l1.4-2.5v-2.5h-1.9V703h0l-2.2-17.6v-0.8h-0.3l-2.2,18.4h0v14.9h-2v2.5
			l1.4,2.5h0.1v11.4h-1.6v2.5l1.4,2.5h0.1v14.2h-0.8v2.5l0.8,1.6v24.8h-2.4l-4.6,4.6v-24.6h0.2l1.8-3.2v-3.2h-2v-14.4h0.2l1.8-3.2
			v-3.2h-2.5v-18.7h0l-2.8-22.2v-1.2h-0.4l-2.8,23.4h0v18.7h-2.4v3.2l1.8,3.2h0.2v14.4h-1.9v3.2l1.8,3.2h0.2V790h-4.9v10h163.2v-10
			H788.8z"/>

			<path class="b5 building" d="M492.1,733.9c-1,0-1.9,0.3-2.7,0.8c-0.5-4.5-1.6-8.7-3.4-12.7c0.1,0,0.2,0,0.3,0c0.9,0,1.7-0.2,2.5-0.7
				c2.4-1.4,3.2-4.4,1.8-6.8c-0.9-1.5-2.5-2.5-4.3-2.5c-0.9,0-1.7,0.2-2.5,0.7c-0.9,0.5-1.5,1.2-2,2.1c-2.6-3.6-5.7-6.7-9.3-9.3
				c0.9-0.4,1.6-1.1,2.1-2c1.4-2.4,0.6-5.4-1.8-6.8c-0.8-0.4-1.6-0.7-2.5-0.7c-1.8,0-3.4,1-4.3,2.5c-0.5,0.9-0.7,1.8-0.7,2.8
				c-3.9-1.8-8.2-2.9-12.7-3.4c0.5-0.8,0.8-1.7,0.8-2.7c0-2.8-2.2-5-5-5c-2.8,0-5,2.2-5,5c0,1,0.3,1.9,0.8,2.7
				c-4.5,0.5-8.7,1.6-12.7,3.4c0.1-1-0.2-1.9-0.7-2.7c-0.9-1.5-2.5-2.5-4.3-2.5c-0.9,0-1.7,0.2-2.5,0.7c-2.4,1.4-3.2,4.4-1.8,6.8
				c0.5,0.9,1.2,1.5,2.1,2c-3.6,2.6-6.7,5.7-9.3,9.3c-0.4-0.8-1.1-1.6-2-2.1c-0.8-0.4-1.6-0.7-2.5-0.7c-1.8,0-3.4,1-4.3,2.5
				c-1.4,2.4-0.6,5.4,1.8,6.8c0.8,0.4,1.6,0.7,2.5,0.7c0.1,0,0.2,0,0.3,0c-1.8,3.9-2.9,8.2-3.4,12.7c-0.8-0.5-1.7-0.8-2.7-0.8
				c-2.8,0-5,2.2-5,5c0,2.8,2.2,5,5,5h0c1,0,1.9-0.3,2.7-0.8c0.5,4.5,1.6,8.7,3.4,12.7c-0.1,0-0.2,0-0.3,0c-0.9,0-1.7,0.2-2.5,0.7
				c-1.2,0.7-2,1.7-2.3,3c-0.3,1.3-0.2,2.6,0.5,3.8c0.9,1.5,2.5,2.5,4.3,2.5c0.9,0,1.7-0.2,2.5-0.7c0.9-0.5,1.5-1.2,2-2.1
				c2.6,3.6,5.7,6.7,9.3,9.3c-0.9,0.4-1.6,1.1-2.1,2c-1.4,2.4-0.6,5.4,1.8,6.8c0.8,0.4,1.6,0.7,2.5,0.7c1.8,0,3.4-1,4.3-2.5
				c0.1-0.1,0.1-0.3,0.2-0.4l-5.2,13.7h-12.4v7.5h69.9v-7.5h-12.4l-5.2-13.7c0.1,0.1,0.1,0.3,0.2,0.4c0.9,1.5,2.5,2.5,4.3,2.5
				c0.9,0,1.7-0.2,2.5-0.7c2.4-1.4,3.2-4.4,1.8-6.8c-0.5-0.9-1.2-1.5-2.1-2c3.6-2.6,6.7-5.7,9.3-9.3c0.4,0.8,1.1,1.6,2,2.1
				c0.8,0.4,1.6,0.7,2.5,0.7c1.8,0,3.4-1,4.3-2.5c1.4-2.4,0.6-5.4-1.8-6.8c-0.8-0.4-1.6-0.7-2.5-0.7c-0.1,0-0.2,0-0.3,0
				c1.8-3.9,2.9-8.2,3.4-12.7c0.8,0.5,1.7,0.8,2.7,0.8h0c2.8,0,5-2.2,5-5C497.1,736.1,494.8,733.9,492.1,733.9z M433.8,792.5
				L439,779c1.7,0.4,3.4,0.7,5.2,0.9c-0.5,0.8-0.8,1.7-0.8,2.7c0,2.8,2.2,5,5,5h0h0c2.7,0,5-2.2,5-5c0-1-0.3-1.9-0.8-2.7
				c1.8-0.2,3.5-0.5,5.2-0.9l5.2,13.6H433.8z M441.7,771.9l6.7-17.5l6.7,17.5c-2.2,0.4-4.4,0.7-6.7,0.7
				C446.1,772.5,443.9,772.3,441.7,771.9z M462.2,769.6l-8-21.1c3.3-2,5.5-5.5,5.5-9.6c0-6.2-5-11.2-11.2-11.2
				c-6.2,0-11.2,5-11.2,11.2c0,4.1,2.2,7.7,5.5,9.6l-8,21.1c-11.7-5.3-19.9-17.1-19.9-30.7c0-18.6,15.1-33.7,33.7-33.7
				c18.6,0,33.7,15.1,33.7,33.7C482.1,752.5,473.9,764.3,462.2,769.6z"/>

			<path class="b6 building" d="M1213.4,795.5l-48.8-57.6c0,0-0.1,0-0.1-0.1c-0.4-0.5-0.9-0.8-1.6-0.9c-0.9-0.2-1.9,0.2-2.5,0.9l-37.2,43.9
				l-25.1-29.7c0,0-0.1,0-0.1-0.1c-0.4-0.5-1-0.8-1.6-0.9c-0.9-0.2-1.9,0.2-2.5,0.9l-36.6,43.4c-0.7,0.8-0.8,1.9-0.4,2.9
				c0.4,1,1.4,1.6,2.5,1.6h54.3h19h53.4h25.3c1.1,0,2-0.6,2.5-1.6C1214.3,797.5,1214.1,796.3,1213.4,795.5z M1119.6,786.1l-5.1,6.1
				l-9.5-23.4L1119.6,786.1z M1065.2,794.6l30-35.5l14.4,35.5H1065.2z M1132.7,794.6h-13.1l42.2-49.7l20.3,49.7H1132.7z
				 M1187.9,794.6l-16.4-40.1l34,40.1H1187.9z"/>

		<path class="b7 building" d="M1062.5,788.4l-1.2-37.8l-0.6-13.3c0.1-0.4,0.2-1.2-0.2-2c-0.4-0.9-1.4-1.5-2-1.8c-0.1-2.6-0.3-4.4-0.6-4.4
			c-0.3,0-0.5,1.8-0.6,4.4c-0.6,0.3-1.6,0.9-2.1,1.8c-0.4,0.8-0.2,1.6-0.2,2l-1.8,51.2h-9.6l-1.2-38.3c0,0,0-1.5-0.2-2
			c-0.3-0.6-0.8-1-1.3-1.2c-0.1-3-0.3-5.3-0.6-5.3c-0.3,0-0.5,2.2-0.6,5.2c-0.5,0.2-1.2,0.7-1.5,1.3c-0.2,0.6-0.2,2-0.2,2l-1.2,38.3
			h-8.3V761l-0.7-0.1v-5.2h-5.1v4.6l-4.9,0h-0.6v-8h-1.7c0-0.6-0.2-2-1.4-3.5c-1.1-1.4-2.9-2.4-4-3c0-3.5-0.4-6.2-0.8-6.2
			c-0.4,0-0.8,2.7-0.8,6.2c-1,0.5-2.9,1.5-4.1,3c-0.2,0.3-0.5,0.6-0.6,0.9v-1.3h-2.2c0.8-0.7,8.1-7.8,6.9-15.5
			c-1.2-7.5-8.5-12.1-14.3-16.2c-4-2.8-6.2-4.8-7.3-6.4h-0.2c0.1-0.8,0.1-1.8,0.1-2.7c0-3.5-0.4-6.2-0.9-6.9v0
			c-0.1-0.1-0.1-0.2-0.2-0.2h0h0c0,0-0.1,0.2-0.2,0.2v0c-0.5,0.6-0.9,3.4-0.9,6.9c0,1,0,1.9,0.1,2.7h-0.2c-1.1,1.6-3.3,3.5-7.3,6.4
			c-5.8,4.1-13.1,8.7-14.3,16.2c-1.2,7.7,6.1,14.8,6.9,15.5h-2.2v1.4c-0.2-0.3-0.4-0.6-0.6-0.9c-1.2-1.5-3.1-2.6-4.1-3
			c0-3.5-0.4-6.2-0.8-6.2c-0.4,0-0.8,2.8-0.8,6.2c-1.1,0.5-2.8,1.6-4,3c-1.2,1.5-1.4,2.9-1.4,3.5h-1.7v7.9l-5.4,0.1v-4.6h-5.2v5.2
			l-0.7,0.1v27.4h-8.3l-1.2-38.3c0,0,0-1.5-0.3-2c-0.3-0.7-1-1.1-1.5-1.3c-0.1-3-0.3-5.2-0.6-5.2c-0.3,0-0.5,2.3-0.6,5.3
			c-0.5,0.3-1.1,0.6-1.3,1.2c-0.3,0.6-0.3,2-0.3,2l-1.2,38.3h-9.5l-1.8-51.2c0.1-0.4,0.2-1.2-0.2-2c-0.4-0.9-1.4-1.5-2.1-1.8
			c-0.1-2.6-0.3-4.4-0.6-4.4c-0.3,0-0.5,1.8-0.6,4.4c-0.7,0.3-1.6,0.9-2.1,1.8c-0.4,0.8-0.2,1.6-0.2,2l-0.6,13.3l-1.2,37.8h-3V800
			h159.9v-11.6L1062.5,788.4L1062.5,788.4z M992,788.2h-12.9v-13.7c0,0-0.1-3.7,3-5.8c1.3-0.9,2.4-1.3,3.4-1.3c1,0,2.1,0.4,3.4,1.3
			c3.1,2.1,3,5.8,3,5.8V788.2z"/>

		<path class="b8 building" d="M79.5,789.6l-0.3-1.4l-0.9-18.1c0,0,0.6-3.5,2.5-6.1C82.5,761.4,80,713,80,713s1.8-5,3.2-6
			c1.4-1-2.8-32.3-2.1-32.7c0.7-0.4,5.3-3,7.9-4.4c2.6-1.4,7.5-15.8,7.5-15.8s1.6-2,3.9-3.6c2.4-1.7,4.5-6.6,5.4-8.9
			c1-2.4-0.9-5-0.9-5l3.5-8l-1.4-2.1l-14.2-6.6l-5.9,8.7c0,0-5.4-3.1-8.3-6.4c-2.9-3.3-2.1-11.3-5.2-16.5c-1.4-2.3-4.3-3.9-7.1-5
			c-1-2.9-2.6-7.3-3-9.1c-0.7-2.8-0.5-8.3,0.2-9.9c0.4-1.1,0-4-0.3-5.9c0.3-0.7,0.7-0.7,0.8-1.5c4.5-0.5,13.5-2.7,13.2-2.8
			c-0.4-0.1-9-1.1-13.4-1.5c-0.1-0.8,0-0.6-0.3-1.3l12-7.5l-14.4,3.8c-0.6-0.6-0.4-1.1-1.1-1.6c1.2-1.6,6.6-12.4,6-12
			c-2,1.7-9.4,9.3-10.4,10.2c-1-0.3-1.9-0.5-3-0.6l-2.5-16.4l-1.9,16.4c-1.8,0.2-1.6,0.1-3.1,0.9l0,0c0,0-10.9-10.3-11.4-10.7
			c-0.6-0.5,6.6,12.4,6.6,12.4l-1.1,1.8l-8.9-2.3c-0.1,0.6-0.3,1.3-0.5,2.1l7.5,3.3l-0.2,1.4c0,0-3.7-0.2-6.4,0c0.3,1.1,0.6,2.1,1,3
			c2,0.3,5.2,0.8,5.2,0.8s0.2,0.3,0.4,0.7c0.4,0.6,1,1.6,1.4,2.4c0.2,4.6,1.2,6.5,1.2,6.5l-0.7,6.8c0,0-2-0.5-3.1-1.7
			c-1.2-1.2-4.3-4.7-4.5-7.9c-0.2-2.8-0.9-6.4-1.8-7.6c-0.3-0.6-1.7-4.9-1.9-6.8c-0.1-0.9-0.2-1.9-0.3-2.7c0-0.4,0-0.7,0-1l0,0
			c0-0.4,0-0.9,0-1.3c-0.3-7.3-5.4-19.6-5.4-22.2s-0.2-8.2,0-12.5c0.2-4.3-3.3-8-3.3-8s0.5-1.2,1.7-2.6c0.5-0.6,0.6-1.2,0.6-1.9
			c3.1-0.6,5.1-1.8,5.1-3.1c0-0.4-0.2-0.8-0.6-1.2v-2.8c0.4-0.4,0.6-0.8,0.6-1.2c0-1.6-3.2-3-7.5-3.5c-0.1-0.9,0-2.3,0.6-2.8
			c1-0.6,2.8-2,2.6-4.4c-0.2-2.4-0.1-3.9,0.5-4.7c0.5-0.9,1.9-2.1,1.9-2.1l-5,2.2l4.7-7.3c0,0-8.8,2.7-11.7,5.3
			c-2.1,1.9-3.5,4.1-1.9,8.9c0.6,2,1.4,3.8,2.5,4.9c-4.5,0.4-7.9,1.8-7.9,3.5c0,0.4,0.2,0.8,0.6,1.1v3c-0.4,0.4-0.5,0.7-0.5,1.1
			c0,1.2,1.6,2.2,4.1,2.9c-0.1,1.9,1.5,3.7,1.5,3.7c0,0,0,0,0,0c0,0-1.2,1.7-1.4,5.9c-0.2,4.3,2.4,7.4,2.4,7.4s0.2,1.4,0.2,4
			s2.4,7.3,2.4,7.3s0.7,4,0.2,11.3c-0.5,7.3,3.3,20.3,3.3,20.3s-3.1,5.4-5.6,11.5c-2.6,6.1,5.2,14.6,5.2,14.6s5,13.9,5.4,19.6
			c0.5,5.7,2.3,49.7,1.2,59.1c-1.2,9.4-2.4,39.5-2.1,43.3c0.2,3.8,2.9,19.6,1.7,32.1c-1.2,12.5-1,33.1-1,33.1l-0.1,2.8H0v10.5h110.2
			v-10.5L79.5,789.6L79.5,789.6z M93.6,622.5l11.9,5.7l-2.5,5.7c0,0-2.9-0.3-4.4,1c-1.5,1.2-4.1,5.6-4.1,6.9c0,1.3,0.6,4.1,0.6,4.1
			l-9.1,16l-1.9-1.6l-1.5-22L93.6,622.5z M52.5,580.1c-0.1,0.6-0.4,0.9-1.1,0.9s-1.5,0.3-1.5,0.3l1,1.5v0.8c0,0-0.2,0.1-0.9,0.1
			c-0.7,0-1,0.5-1.1,1c-0.2,0.4,0.9,0.1,1.6,0.1c0.6,0,0.9,0.9,0.9,0.9s0,1.7,0,2.4c0,0.7-0.5,0.8-1.3,0.7c-0.9-0.1-3.5-0.2-4.4-1.8
			c-0.9-1.6-1-5.5-0.6-6.1c0.4-0.7,3.5-2,4-2.2c0.5-0.2,0.7-1.7,0.5-2.5c-0.2-0.8-2.7-1.3-2.7-1.3c-1.3-1.3,4.6-3.9,5.4-3.8
			c0.8,0.1,4.2,3.4,4.2,3.4s-3.3,0.6-3.8,1.2C52.2,576.1,52.6,579.5,52.5,580.1z M55.6,583.8c-0.7,0.2-2.5-4.4-1.4-4.4
			c0,0,2.9,0.1,3,0.8C57.2,580.9,56.3,583.5,55.6,583.8z M54.1,569.7c-0.6-0.1-3-1-4.3-0.2c-1.3,0.8-5.3,3.7-6.7,4.7
			c-1.5,1-1.8-2.8-1.8-2.8c1.6-2.7,5.7-4.8,7.5-4.9c1.8-0.2,4.3,0.2,5.1,0.6c0.9,0.5,2.9-0.1,4.5,1.2c1.6,1.2,2.5,4.1,2.2,4.8
			C60.3,573.9,54.7,569.8,54.1,569.7z"/>

			<path class="b9 building" d="M325.1,567.4c2.7,0,5-2.1,5.3-4.8c0.3-2.9-1.9-5.5-4.8-5.7l-56.9-5.3l-0.5,0c-2.7,0-5,2.1-5.3,4.8
				c-0.1,1.4,0.3,2.8,1.2,3.9c0.9,1.1,2.2,1.8,3.6,1.9l1.4,0.1l-2.8,20.2l-6.8-0.5l-0.5,0c-2.7,0-5,2.1-5.2,4.9
				c-0.2,2.9,1.9,5.5,4.8,5.7l4.2,0.4l-3.8,27.5l-2.3-0.3l-0.5,0c-2.8,0-5,2.1-5.2,4.9c-0.1,1.4,0.3,2.8,1.2,3.8
				c0.9,1.1,2.2,1.7,3.5,1.8l1.8,0.2l-3.8,27.5l-0.3,0c-2.7,0-5,2.1-5.2,4.9c-0.1,1.4,0.3,2.8,1.2,3.8c0.9,1.1,2.2,1.7,3.6,1.8
				l1.4,0.1l-3.8,27.6c-2.7,0-5,2.1-5.2,4.9c-0.1,1.4,0.3,2.8,1.2,3.9c0.7,0.8,1.6,1.4,2.6,1.7l-4.4,31.9l-0.3,0c-2.7,0-5,2-5.3,4.7
				l-5.7,51c-0.2,1.4,0.3,2.8,1.2,3.9c0.9,1,2.3,1.6,3.7,1.6H302c2.9,0,5.3-2.3,5.5-5.2l2.8-44.5c0.1-2.2-1.1-4.2-3-5.1l3.1-33.3
				l5.9,0.5l0.4,0c2.7,0,5-2.1,5.3-4.9c0.2-2.9-1.9-5.5-4.8-5.7l-5.8-0.5l2.6-27.6l5.1,0.4l0.5,0c2.7,0,5-2.1,5.3-4.9
				c0.1-1.4-0.3-2.8-1.2-3.9c-0.9-1.1-2.2-1.7-3.6-1.8l-5-0.4l2.6-27.6l4.4,0.4l0.4,0c2.7,0,5-2.1,5.3-4.9c0.2-2.9-1.9-5.5-4.8-5.7
				l-4.2-0.3l2.6-27.7l3.6,0.3l0.5,0c2.7,0,5-2.1,5.3-4.9c0.1-1.4-0.3-2.8-1.2-3.9c-0.9-1.1-2.2-1.7-3.6-1.8l-3.5-0.3l1.8-19.6
				L325.1,567.4z M299.4,573.4l1.4,0.1l0.1,0l1.8,0.2l-1.2,12.3l-3.2-0.3L299.4,573.4z M296.7,598.8l1.7,0.2l0.1,0l2.6,0.3
				l-3.3,24.3l-4.3-0.6L296.7,598.8z M293.6,635.8L293.6,635.8l2.8,0.4l-3.3,24.3l-4.3-0.6l3.3-24.3L293.6,635.8z M287.6,571.6
				l1.5,0.1l0.1,0l1.7,0.2l-1.2,12.3l-3.2-0.3L287.6,571.6z M283.5,597.6l2,0.3l0.1,0l2.3,0.3l-3.3,24.3l-4.3-0.6L283.5,597.6z
				 M283.2,635l-3.3,24.3l-4.3-0.6l3.3-24.3l1.8,0.2l0.1,0L283.2,635z M275.9,570.6l1.5,0.1l0.1,0l1.7,0.2l-1.2,12.3l-3.3-0.3
				L275.9,570.6z M270.4,596.3l2.2,0.3l0.1,0l2,0.3l-3.3,24.3l-4.3-0.6L270.4,596.3z M265.8,633.1l2.1,0.3l0.1,0l2.1,0.3l-3.3,24.3
				l-4.3-0.6L265.8,633.1z M261.1,673.7l2.2,0.3l0.1,0l2.1,0.3l-3.3,24.3l-4.3-0.6L261.1,673.7z M251.4,761.8l-1.1,7.5l-4.3-0.6
				l1.1-7.5l1.6,0.2l1.7-8.3c0.1-0.3,0.3-0.5,0.7-0.4c0.3,0.1,0.5,0.4,0.4,0.7l-1.7,8.3L251.4,761.8z M257.5,738.6l-4.3-0.6
				l3.3-24.3l2,0.3l0.1,0l2.2,0.3L257.5,738.6z M267.5,762.9l-1.1,7.5l-4.3-0.6l1.1-7.5l1.7,0.3l1.5-7.5c0.1-0.3,0.3-0.4,0.7-0.4
				c0.2,0,0.3,0.2,0.4,0.2c0.1,0.1,0.1,0.2,0.1,0.4l-1.5,7.4L267.5,762.9z M270.6,739.8l-4.3-0.6l3.3-24.3l1.7,0.2l0.1,0l2.5,0.3
				L270.6,739.8z M271,699.3l3.3-24.3l1.9,0.2l0.1,0l2.4,0.3l-3.3,24.3L271,699.3z M282.6,771.5l-4.3-0.6l1.1-7.5l1.5,0.2l1.3-6.6
				c0.1-0.3,0.3-0.5,0.7-0.4c0.2,0,0.3,0.2,0.4,0.2c0.1,0.1,0.1,0.2,0.1,0.4l-1.3,6.5l1.6,0.2L282.6,771.5z M283.7,741.1l-4.3-0.6
				l3.3-24.3l1.8,0.2l0.1,0l2.4,0.3L283.7,741.1z M288.4,701.1l-4.3-0.6l3.3-24.3l1.6,0.2l0.1,0l2.7,0.4L288.4,701.1z M298.7,772.6
				l-4.3-0.6l1.1-7.5l1.4,0.2l1.1-5.6c0.1-0.3,0.3-0.5,0.7-0.4c0.3,0.1,0.5,0.4,0.4,0.7l-1.1,5.6l1.8,0.3L298.7,772.6z M296.9,742.3
				l-4.3-0.6l3.3-24.3l2.2,0.3h0.1l2,0.3L296.9,742.3z M301.5,702.4l-4.3-0.6l3.3-24.3l2.3,0.3l0.1,0l1.9,0.3L301.5,702.4z
				 M306.2,661.8l-4.3-0.6l3.3-24.3l2.3,0.3l0.1,0l1.9,0.3L306.2,661.8z M310.8,624.9l-4.3-0.6l3.3-24.3l2.4,0.3l0.1,0l1.8,0.2
				L310.8,624.9z M313.2,587.9l-3.2-0.3l1.2-12.3l1.3,0.1l0.1,0l1.9,0.2L313.2,587.9z"/>

		<path class="b10 building" d="M1178.5,671.4l15.3,6.7v112.3l-11.4,3.4v6.3h96.6v-6.7l-14.5-2.9c2.2-13.7,7-55.2-7.7-93.4
			c-4.4-11.5-10.1-21.6-16.2-30.5c0.1-2.9,0.7-6.3,2.3-7c3-1.4,7.2-1.4,7.2-2.5s-0.6-3.6-7.6-4c-5-0.3-9,0.9-11,1.6
			c-12.4-14.9-24.5-24.6-29.6-28.3l-2.2-1.2h-0.6v-16h-3.2v16h-2.2V667l-4-2.2c0,0-3.9-0.4-7,0.2c-3.2,0.6-5.3,2.1-5.1,4
			C1177.9,671,1178.5,671.4,1178.5,671.4z M1247.5,716.3c5.9,40.8,0,69.2,0,69.2h-16.8c0.7-4,7.1-30.3,1.8-73.3
			c-5.6-46.3-23.9-73.8-23.9-73.8S1240.6,669,1247.5,716.3z M1205.3,648.1c2.2,5.1,5.1,12.3,8.1,21.6h-8.1V648.1z M1205.3,676.8
			h10.3c0.3,1.1,0.7,2.3,1,3.4h-11.2V676.8z M1205.3,682.5h11.8c0.5,1.9,1,3.8,1.5,5.8c0,0.1,0,0.2,0.1,0.3h-13.4V682.5z
			 M1205.3,690.9h13.9c0.5,2,0.9,4,1.3,6.1h-15.1V690.9z M1205.3,699.3h15.6c0.4,2,0.7,4,1,6.1h-16.6V699.3z M1205.3,707.6h16.9
			c0.1,0.6,0.2,1.3,0.3,1.9h-17.2V707.6z M1205.3,716.7h18.1c0.1,1,0.2,2.1,0.3,3.1h-18.5V716.7z M1205.3,722.1h18.7
			c0.2,2,0.3,4.1,0.5,6.1h-19.2V722.1z M1205.3,730.4h19.4c0.1,2.1,0.2,4.1,0.3,6.1h-19.7V730.4z M1205.3,738.8h19.8
			c0.1,2.1,0.2,4.1,0.2,6.1h-20V738.8z M1205.3,747.2h20.1c0,0.8,0,1.6,0,2.3h-20.1V747.2z M1205.3,756.6h20.1c0,0.9,0,1.8,0,2.6
			h-20.1V756.6z M1205.3,761.6h20.1c0,2.1-0.1,4.2-0.1,6.1h-20V761.6z M1205.3,769.9h19.9c-0.1,2.2-0.2,4.3-0.3,6.1h-19.6V769.9z
			 M1205.3,778.3h19.5c-0.2,2.7-0.3,4.8-0.4,6.1h-19.1V778.3z"/>

		<path class="b11 building" d="M1084.7,661.4c0.4,0.3,0.5,1.1,0.7,1.1c0.3,0,1.1-0.1,1.4-0.4c0.3-0.3,0.5-0.3,0.5-0.7c0-0.4-0.4-0.9-0.5-1.2
			c-0.1-0.3-1.3-0.3-1.7-0.3c-0.5,0-0.8,0.3-0.8,0.3C1084.2,660.4,1084,660.9,1084.7,661.4z M1146.9,677.9c-0.7-0.5-6.6,0.2-6.6,0.2
			s2-0.9,2.1-1.5c0.1-0.6-4.4,0.8-6,1.2c-1.5,0.3-3.2,1.5-3.2,1.5l-2.2,0.6c0,0-12.8,0.2-16.8,0.2c-4,0-10.7-2.1-14.9-3.6
			c-4.2-1.5-9.5-1.4-9.5-1.4s-0.8-2.4-0.8-3.4c0-0.9-0.1-5.6-0.3-10.9c-0.2-5.3-4.4-5.8-7-5.3c-4.2,0.8-4.4,5.2-4.6,8.5
			c-0.2,3.3-1.7,10.8-1.7,10.8s-1.2-0.1-4.1,0c-2.9,0.1-7.5,2.2-9.7,1.8c-2.2-0.5-7.5,0.8-8.7,1.3c-1.3,0.5-19.4,0.2-20.7,0.2
			c-1.3,0-2.9-1.2-4.6-2c-1.6-0.8-4.7-0.7-6.2-0.6c-1.5,0.1-1.1,1.4-1.1,1.4s-1.9-0.1-3.1,0c-1.2,0.1-3.1,0.4-2.7,1.9
			c0.5,1.5,8.4,3.1,11.1,3.3c2.7,0.1,5.8,0.3,5.8,0.3s1.2,2.1,2.7,4.6c1.5,2.4,6.2,6.9,6.2,6.9s3.3-0.5,6-0.5c2.7,0,4.9-0.5,6.7,0.4
			c1.7,0.8,11.6,3,11.6,3l-1.5,21.3c0,0,1.9,0.2,1.9,1.6c0,1.4,1.1,2.6,1.1,2.6l-0.5,53.1l-7.3,2l-0.4,4.1l-2.9,1.2l-2.2,17.3h61.6
			l-2.2-17.3l-2.9-1.2l-0.4-4.1l-6.8-1.9l-1.6-18.2l1.6-0.6l-0.2-16.2l1.4-1.4l-2.9-42.1c0,0,4.9-0.5,9.1-1.6
			c4.2-1.2,15.6-0.7,15.6-0.7s1.3-0.2,3.3-2.5c2-2.2,2.7-7.9,2.7-7.9s2.2-0.6,4.2-0.7c2-0.1,8.2-1.3,10.9-2.7
			C1148.7,679.5,1147.6,678.3,1146.9,677.9z M1079.7,658.9c0,0,0.7-1.3,2.5-1.6c1.9-0.2,3.9,0.2,4.6,1c0.7,0.7,0.9,4.2,1,4.8
			c0,0.7-0.4,4.2-1.1,5.1c-0.7,0.9-1.7,1.6-2.1,1.4c-0.4-0.2-0.8-0.9-1.4-0.9c-0.6,0-1.2,0-1.1-0.6c0.1-0.6,0.9-2.1,1.5-2.1
			c0.6,0,0.9,0,1.1,0.2c0.2,0.2,0.7,0.2,0.7,0.2s0.3-0.6-0.1-1.2c-0.5-0.6-1.1-0.8-1.1-0.8s0-1.4-0.4-1.5c-0.4-0.1-0.8,0-0.8,0
			s0.2-2.3,0.1-2.6c-0.1-0.4-0.1-0.7-0.7-0.7c-0.6,0-1.4-0.1-1.9,0C1079.9,659.6,1079.2,659.5,1079.7,658.9z"/>

		<path class="b12 building" d="M429.7,776.6V774c-18.4,0-26.6-16.3-29.2-21.5v-3.7c0,0-0.1-0.1-0.1-0.1v-10.3h-0.1l-1.5-6.5v-0.1h-0.3v0.1
			l-0.7,2.7h-1.9l-1.6-7.1h0.2l-0.1-0.7h-1l-0.1,0.7h0.2l-1.9,7.1h-1.9L389,732v-0.1h-0.3v0.1l-1.7,6.5h-0.1v6.7h-54.5v-6.7h-0.1
			l-1.7-6.5v-0.1h-0.3v0.1l-0.6,2.7h-1.9l-1.9-7.1h0.2l0-0.7h-1l0,0.7h0.2l-1.6,7.1h-2l-0.7-2.7v-0.1h-0.3v0.1l-1.5,6.4h-0.1v10.3
			c0,0-0.1,0.1-0.1,0.1v3.7c-2.6,5.2-10.8,21.5-29.4,21.5v2.1l0.1,0.4c4.3,0,8-0.8,11.3-2.2v6.3h-11.1v2.7H315v16.8h21.3v-12
			l23.1-5.4h0.7l23.1,5.4v12h21.3v-16.8h25.3v-2.7h-11.3v-6.4C421.7,775.7,425.4,776.6,429.7,776.6z M303,773.3
			c3.5-1.8,6.4-4.2,8.9-6.7v14H303V773.3z M319.4,780.6H314v-16.4c2.3-2.8,4.1-5.6,5.4-7.6V780.6z M338.2,784.3v-2.8H352
			L338.2,784.3z M380.1,784.3l-13.8-2.8h13.8V784.3z M387.4,778.8h-55.4v-22.4l0.5-1.6v-3.4h54.5v3.4l0.5,1.6L387.4,778.8
			L387.4,778.8z M399.9,780.6v-24.1c1.3,2,3,4.7,5.2,7.5v16.6L399.9,780.6L399.9,780.6z M416.2,780.6h-8.8v-14.2
			c2.4,2.5,5.3,5,8.8,6.8V780.6z"/>

			<path class="b13 building" d="M562.7,795.2v-24.5l-1.6-0.6c-0.3-0.1-7.3-2.7-19.5-3.7c-3.1-0.3-6.8-0.4-10.9-0.4l-4.6-26.2l-1.8-0.2
				c-0.2,0-5-0.5-11.6,0.5c-8.7,1.3-16.5,4.5-22.6,9.4l-0.9,0.7v22.3v22.6h-2.3v4.8h2.3h47.4h25.9h2.3v-4.8H562.7z M502.1,795.2
				h-4.3v-4c0-1.2,1-2.1,2.1-2.1c0.6,0,1.1,0.2,1.5,0.6c0.4,0.4,0.6,0.9,0.6,1.5V795.2z M502.1,784.2h-4.3v-5.1c0-1.2,1-2.1,2.1-2.1
				c0.6,0,1.1,0.2,1.5,0.6c0.4,0.4,0.6,0.9,0.6,1.5V784.2z M502.1,769.3v1.7h-4.3v-0.7v-4.4c0-1.2,1-2.1,2.1-2.1
				c0.6,0,1.1,0.2,1.5,0.6c0.4,0.4,0.6,0.9,0.6,1.5V769.3z M512,795.2h-5v-4.3c0-1.4,1.1-2.5,2.5-2.5c0.7,0,1.3,0.3,1.8,0.7
				c0.4,0.5,0.7,1.1,0.7,1.8V795.2z M512,782.4h-5v-4.8c0-1.4,1.1-2.5,2.5-2.5c0.7,0,1.3,0.3,1.8,0.7c0.4,0.5,0.7,1.1,0.7,1.8V782.4
				z M512,767.5v1.7h-5v-0.9v-3.9c0-1.4,1.1-2.5,2.5-2.5c0.7,0,1.3,0.3,1.8,0.7c0.4,0.5,0.7,1.1,0.7,1.8V767.5z M522,795.2h-5v-4.3
				c0-1.4,1.1-2.5,2.5-2.5c0.7,0,1.3,0.3,1.8,0.7c0.4,0.5,0.7,1.1,0.7,1.8V795.2z M522,781.6h-5v-4.8c0-1.4,1.1-2.5,2.5-2.5
				c0.7,0,1.3,0.3,1.8,0.7c0.4,0.5,0.7,1.1,0.7,1.8V781.6z M522,766.4v1.4h-5v-0.9V763c0-1.4,1.1-2.5,2.5-2.5c0.7,0,1.3,0.3,1.8,0.7
				c0.4,0.5,0.7,1.1,0.7,1.8V766.4z M543.4,795.2h-5v-3.6c0-1.4,1.1-2.5,2.5-2.5c0.7,0,1.3,0.3,1.8,0.7c0.4,0.5,0.7,1.1,0.7,1.8
				V795.2z M543.4,781.6h-5v-4.8c0-1.4,1.1-2.5,2.5-2.5c0.7,0,1.3,0.3,1.8,0.7c0.4,0.5,0.7,1.1,0.7,1.8V781.6z M553,795.2h-5v-3.6
				c0-1.4,1.1-2.5,2.5-2.5c0.7,0,1.3,0.3,1.8,0.7c0.4,0.5,0.7,1.1,0.7,1.8V795.2z M553,783.2h-5v-4.8c0-1.4,1.1-2.5,2.5-2.5
				c0.7,0,1.3,0.3,1.8,0.7c0.4,0.5,0.7,1.1,0.7,1.8V783.2z"/>

		<path class="b14 building" d="M235,789.5v-7.3h-6.8v-7h-6.6v-16.8h1.1c1.8,0,3.9-0.2,5.4-1.4c1.5-1.2,1.6-3.1,1.6-3.1s-1.8,0.6-5.6,0.2
			c-3.8-0.3-9.4-3-9.4-3v-5.4c4.8,0,5.8-1.2,7.3-2.9c1.5-1.7,1.3-4.1,1.3-4.1s-6.7,2.2-19-2.7c-10.6-4.2-16-14.1-16-14.1
			s0.3-1,0.1-2.2c-0.1-1.2-1.6-1.1-2-0.9c-0.5,0.2-2.4,2.4-2.4,2.4h-56.6c0,0-1.9-2.2-2.4-2.4c-0.5-0.2-2-0.3-2.1,0.9
			c-0.1,1.2,0.1,2.2,0.1,2.2s-5.4,9.9-16,14.1c-12.3,4.9-19,2.7-19,2.7s-0.2,2.3,1.3,4.1c1.5,1.8,2.5,2.9,7.3,2.9v5.4
			c0,0-5.6,2.7-9.4,3c-3.8,0.3-5.6-0.2-5.6-0.2s0.1,1.9,1.6,3.1c1.5,1.2,3.5,1.4,5.4,1.4h1.1v16.8h-6.6v7h-6.8v7.3h-8.6V800h176
			v-10.5L235,789.5L235,789.5z M152.3,745.3h6.5v6.1h-3.1l0,0h-3.4V745.3z M107.6,773.5H95.5v-10.9l2.5-2.5h6.7l2.9,2.9V773.5z
			 M108.3,751.3h-8.5v-6h8.5L108.3,751.3z M112.6,745.3h8.9v6h-8.9V745.3z M125,773.5h-12.1v-10.9l2.5-2.5h6.8l2.8,2.9L125,773.5
			L125,773.5z M125.8,745.3h8.9v6h-8.9V745.3z M142.5,773.5h-12.1v-10.9l2.5-2.5h6.7l2.9,2.9L142.5,773.5L142.5,773.5z M147.9,751.3
			h-8.8v-6h8.8V751.3z M163,773.5h-14.9v-12.8H163V773.5L163,773.5z M163.2,745.3h8.9v6h-8.9V745.3z M180.7,773.5h-12.1V763l2.8-2.9
			h6.8l2.4,2.5L180.7,773.5L180.7,773.5z M185.3,751.3h-8.8v-6h8.8V751.3z M198.2,773.5h-12.1V763l2.8-2.9h6.8l2.5,2.5L198.2,773.5
			L198.2,773.5z M198.5,751.3h-8.8v-6h8.8V751.3z M202.8,745.3h8.5v6h-8.5V745.3z M215.6,773.5h-12.1V763l2.8-2.9h6.8l2.5,2.5
			L215.6,773.5L215.6,773.5L215.6,773.5z"/>

</svg>
