
<svg version="1.1" id="Layer_1" xmlns="http://www.w3.org/2000/svg" xmlns:xlink="http://www.w3.org/1999/xlink" x="0px" y="0px"
	 viewBox="0 0 393.6 89.1" style="enable-background:new 0 0 393.6 89.1;" xml:space="preserve">



<defs>
	<style type="text/css">

		@-webkit-keyframes dash {
			from { stroke-dashoffset: 500; }
			to{ stroke-dashoffset: 0; }
		}
		@-webkit-keyframes fill {
			from { fill-opacity: 0; }
			to { fill-opacity: 1; }
		}
		@-moz-keyframes dash {
			from { stroke-dashoffset: 500; }
			to{ stroke-dashoffset: 0; }
		}
		@-moz-keyframes fill {
			from { fill-opacity: 0; }
			to { fill-opacity: 1; }
		}
		@-o-keyframes dash {
			from { stroke-dashoffset: 500; }
			to{ stroke-dashoffset: 0; }
		}
		@-o-keyframes fill {
			from { fill-opacity: 0; }
			to { fill-opacity: 1; }
		}
		@keyframes dash {
			from { stroke-dashoffset: 500; }
			to{ stroke-dashoffset: 0; }
		}
		@keyframes fill {
			from { fill-opacity: 0; }
			to { fill-opacity: 1; }
		}


		.st0 {
			fill: #E5E5E5;
			fill-opacity: 0;
			stroke:#E5E5E5;
			stroke-width:2;
			stroke-linejoin:round;
			stroke-miterlimit:10;
			stroke-dasharray: 500;
			stroke-dashoffset: 0;

			animation-name: dash, fill;
			-o-animation-name: dash, fill;
			-moz-animation-name: dash, fill;
			-webkit-animation-name: dash, fill;

			animation-duration: 4s, 2s;
			-o-animation-duration: 4s, 2s;
			-moz-animation-duration: 4s, 2s;
			-webkit-animation-duration: 4s, 2s;

			animation-delay: 0s, 3s;
			-o-animation-delay: 0s, 3s;
			-moz-animation-delay: 0s, 3s;
			-webkit-animation-delay: 0s, 3s;

			animation-timing-function: ease-in-out;
		  animation-fill-mode: forwards;
		}

		.st1 {
			fill: #E5E5E5;
			fill-opacity: 0;
			stroke:#E5E5E5;
			stroke-linecap:round;
			stroke-linejoin:round;
			stroke-miterlimit:10;
			stroke-dasharray: 500;
			stroke-dashoffset: 0;

			animation-name: dash, fill;
			-o-animation-name: dash, fill;
			-moz-animation-name: dash, fill;
			-webkit-animation-name: dash, fill;

			animation-duration: 4s, 3s;
			-o-animation-duration: 4s, 3s;
			-moz-animation-duration: 4s, 3s;
			-webkit-animation-duration: 4s, 3s;

			animation-delay: 0s, 1.5s;
			-o-animation-delay: 0s, 1.5s;
			-moz-animation-delay: 0s, 1.5s;
			-webkit-animation-delay: 0s, 1.5s;

			animation-timing-function: ease-in-out;
		  animation-fill-mode: forwards;
		}

		.st2 {
			fill: #E5E5E5;
			fill-opacity: 0;
			stroke:#E5E5E5;
			stroke-linecap:round;
			stroke-linejoin:round;
			stroke-miterlimit:10;
			stroke-dasharray: 500;
			stroke-dashoffset: 0;

			animation-name: dash, fill;
			-o-animation-name: dash, fill;
			-moz-animation-name: dash, fill;
			-webkit-animation-name: dash, fill;

			animation-duration: 4s, 3s;
			-o-animation-duration: 4s, 3s;
			-moz-animation-duration: 4s, 3s;
			-webkit-animation-duration: 4s, 3s;

			animation-delay: 0s, 1.5s;
			-o-animation-delay: 0s, 1.5s;
			-moz-animation-delay: 0s, 1.5s;
			-webkit-animation-delay: 0s, 1.5s;


			animation-timing-function: ease-in-out;
		  animation-fill-mode: forwards;
		}

		.st3 {
			fill: #E5E5E5;
			fill-opacity: 0;
			stroke:#E5E5E5;
			stroke-linecap:round;
			stroke-linejoin:round;
			stroke-miterlimit:10;
			stroke-dasharray: 500;
			stroke-dashoffset: 0;

			animation-name: dash, fill;
			-o-animation-name: dash, fill;
			-moz-animation-name: dash, fill;
			-webkit-animation-name: dash, fill;

			animation-duration: 4s, 3s;
			-o-animation-duration: 4s, 3s;
			-moz-animation-duration: 4s, 3s;
			-webkit-animation-duration: 4s, 3s;

			animation-delay: 0s, 1.5s;
			-o-animation-delay: 0s, 1.5s;
			-moz-animation-delay: 0s, 1.5s;
			-webkit-animation-delay: 0s, 1.5s;

			animation-timing-function: ease-in-out;
		  animation-fill-mode: forwards;
		}

		.st4 {
			fill: #E5E5E5;
			fill-opacity: 0;
			stroke:#E5E5E5;
			stroke-linecap:round;
			stroke-linejoin:round;
			stroke-miterlimit:10;
			stroke-dasharray: 500;
			stroke-dashoffset: 0;

			animation-name: dash, fill;
			-o-animation-name: dash, fill;
			-moz-animation-name: dash, fill;
			-webkit-animation-name: dash, fill;

			animation-duration: 4s, 3s;
			-o-animation-duration: 4s, 3s;
			-moz-animation-duration: 4s, 3s;
			-webkit-animation-duration: 4s, 3s;

			animation-delay: 0s, 1.5s;
			-o-animation-delay: 0s, 1.5s;
			-moz-animation-delay: 0s, 1.5s;
			-webkit-animation-delay: 0s, 1.5s;

			animation-timing-function: ease-in-out;
		  animation-fill-mode: forwards;
		}

		.st5 {
			fill: #E5E5E5;
			fill-opacity: 0;
			stroke:#E5E5E5;
			stroke-linecap:round;
			stroke-linejoin:round;
			stroke-miterlimit:10;
			stroke-dasharray: 500;
			stroke-dashoffset: 0;

			animation-name: dash, fill;
			-o-animation-name: dash, fill;
			-moz-animation-name: dash, fill;
			-webkit-animation-name: dash, fill;

			animation-duration: 4s, 3s;
			-o-animation-duration: 4s, 3s;
			-moz-animation-duration: 4s, 3s;
			-webkit-animation-duration: 4s, 3s;

			animation-delay: 0s, 1.5s;
			-o-animation-delay: 0s, 1.5s;
			-moz-animation-delay: 0s, 1.5s;
			-webkit-animation-delay: 0s, 1.5s;

			animation-timing-function: ease-in-out;
		  animation-fill-mode: forwards;
		}

		.st6 {
			fill: #E5E5E5;
			fill-opacity: 0;
			stroke:#E5E5E5;
			stroke-linecap:round;
			stroke-linejoin:round;
			stroke-miterlimit:10;
			stroke-dasharray: 500;
			stroke-dashoffset: 0;

			animation-name: dash, fill;
			-o-animation-name: dash, fill;
			-moz-animation-name: dash, fill;
			-webkit-animation-name: dash, fill;

			animation-duration: 4s, 3s;
			-o-animation-duration: 4s, 3s;
			-moz-animation-duration: 4s, 3s;
			-webkit-animation-duration: 4s, 3s;

			animation-delay: 0s, 1.5s;
			-o-animation-delay: 0s, 1.5s;
			-moz-animation-delay: 0s, 1.5s;
			-webkit-animation-delay: 0s, 1.5s;

			animation-timing-function: ease-in-out;
		  animation-fill-mode: forwards;
		}

		.st7 {
			fill: #E5E5E5;
			fill-opacity: 0;
			stroke:#E5E5E5;
			stroke-linecap:round;
			stroke-linejoin:round;
			stroke-miterlimit:10;
			stroke-dasharray: 500;
			stroke-dashoffset: 0;

			animation-name: dash, fill;
			-o-animation-name: dash, fill;
			-moz-animation-name: dash, fill;
			-webkit-animation-name: dash, fill;

			animation-duration: 4s, 3s;
			-o-animation-duration: 4s, 3s;
			-moz-animation-duration: 4s, 3s;
			-webkit-animation-duration: 4s, 3s;

			animation-delay: 0s, 1.5s;
			-o-animation-delay: 0s, 1.5s;
			-moz-animation-delay: 0s, 1.5s;
			-webkit-animation-delay: 0s, 1.5s;

			animation-timing-function: ease-in-out;
		  animation-fill-mode: forwards;
		}



	</style>

</defs>


<path class="st0 txt" d="M89.2,48.9c0,7-1.3,12.9-3.9,17.9c-2.6,4.9-6.1,8.8-10.4,11.7c-4.3,2.9-8.9,4.9-13.9,6.2
	c-5,1.3-9.9,1.9-14.9,1.9c-6.9,0-13.6-1.2-20.1-3.5c-6.5-2.4-12-6.4-16.4-12S3,58.1,3,49V4h24.5v38.6c0,5.4,0.8,9.8,2.3,13.3
	s3.7,6.1,6.5,7.7c2.8,1.6,6,2.4,9.8,2.4c3.6,0,6.8-0.8,9.6-2.4c2.8-1.6,4.9-4.2,6.5-7.6c1.5-3.5,2.3-7.9,2.3-13.3V3.9h24.6
	L89.2,48.9L89.2,48.9z">
</path>

<path class="st1 txt" d="M110,24.8v9.5l0.5-0.7c4-6.4,7.9-9.6,11.9-9.6c3.1,0,6.3,1.6,9.7,4.7l-4.3,7.2c-2.8-2.7-5.5-4-7.9-4
	c-2.6,0-4.9,1.3-6.9,3.8s-2.9,5.5-2.9,9v21.6h-8.2V24.9L110,24.8L110,24.8z"/>
<path class="st2" d="M137.3,3.3h8.2v24.4c3.5-2.6,7.3-3.9,11.3-3.9c5.2,0,9.5,2,12.9,5.9s5,9,5,15.3c0,6.7-2,12-6,15.9
	s-9.3,5.9-15.9,5.9c-2.7,0-5.5-0.3-8.4-0.9c-3-0.6-5.3-1.3-7-2.2V3.3H137.3z M145.5,35.6V58c2.8,0.8,5.7,1.3,8.6,1.3
	c3.6,0,6.6-1.3,8.9-3.9s3.4-5.9,3.4-9.9c0-4.1-1.1-7.5-3.2-10c-2.1-2.6-4.9-3.9-8.4-3.9C151.8,31.5,148.7,32.9,145.5,35.6z"/>
<path class="st3 txt" d="M181.7,63.2v-8.8c2.3,1.6,4.7,2.9,7.1,3.9s4.4,1.5,6.1,1.5s3.2-0.4,4.4-1.3c1.2-0.8,1.8-1.8,1.8-3
	s-0.4-2.2-1.2-3s-2.5-1.9-5.2-3.4c-5.3-2.9-8.7-5.5-10.4-7.5c-1.6-2.1-2.5-4.4-2.5-6.8c0-3.2,1.2-5.8,3.7-7.8s5.7-3,9.6-3
	c4,0,8.2,1.1,12.5,3.4v8.1c-4.9-2.9-8.8-4.4-11.9-4.4c-1.6,0-2.9,0.3-3.8,1c-1,0.7-1.5,1.6-1.5,2.7c0,1,0.4,1.9,1.3,2.7
	c0.9,0.9,2.4,1.9,4.7,3.1l2.9,1.7c6.9,3.9,10.4,8.2,10.4,13c0,3.4-1.3,6.2-4,8.3c-2.7,2.2-6.1,3.3-10.2,3.3c-2.5,0-4.6-0.3-6.6-0.8
	C187.1,65.6,184.6,64.6,181.7,63.2z"/>
<path class="st4 txt" d="M250.3,56.5v8.1c-4.1,1.5-8.1,2.3-12.1,2.3c-6.5,0-11.6-1.9-15.5-5.8c-3.9-3.8-5.8-9-5.8-15.4
	c0-6.5,1.9-11.8,5.6-15.7c3.7-4,8.7-6,14.8-6c2.1,0,4,0.2,5.7,0.6s3.8,1.2,6.3,2.3v8.7c-4.1-2.6-8-4-11.5-4c-3.7,0-6.7,1.3-9.1,3.9
	s-3.6,5.9-3.6,9.9c0,4.2,1.3,7.6,3.8,10.1s6,3.7,10.4,3.7C242.6,59.2,246.2,58.3,250.3,56.5z"/>
<path class="st5 txt" d="M279.4,24.7c6.3,0,11.5,2,15.7,6.1s6.3,9.2,6.3,15.3c0,6-2.1,10.9-6.3,14.9c-4.2,3.9-9.6,5.9-16,5.9
	c-6.2,0-11.4-2-15.6-6s-6.3-9-6.3-15c0-6.1,2.1-11.1,6.3-15.1C267.7,26.7,273,24.7,279.4,24.7z M278.9,32.1c-3.9,0-7.2,1.3-9.7,3.9
	s-3.8,5.9-3.8,9.9s1.3,7.2,3.9,9.7s5.9,3.8,9.9,3.8s7.3-1.3,9.9-3.8s3.8-5.8,3.8-9.7s-1.3-7.2-4-9.8C286.3,33.3,283,32.1,278.9,32.1
	z"/>
<path class="st6 txt" d="M309.9,87.3V24.8h14.3c7.3,0,13.1,1.8,17.1,5.5c4.1,3.7,6.1,8.8,6.1,15.3c0,6.2-1.9,11.3-5.8,15.3
	c-3.8,4-8.8,6-14.7,6c-2.6,0-5.6-0.6-8.8-1.8v22.1L309.9,87.3L309.9,87.3z M324,32.4h-5.8v25.5c2.5,1.3,5.1,1.9,7.9,1.9
	c3.8,0,7-1.3,9.4-4s3.7-6.1,3.7-10.3c0-2.7-0.6-5.1-1.7-7.2c-1.2-2.1-2.7-3.6-4.7-4.5C330.8,32.9,327.9,32.4,324,32.4z"/>
<path class="st7 txt" d="M391.7,46.2h-29.1c0.2,4,1.5,7.1,4,9.4c2.4,2.3,5.6,3.5,9.5,3.5c5.4,0,10.4-1.7,14.9-5v8
	c-2.5,1.7-5,2.9-7.5,3.6s-5.4,1.1-8.7,1.1c-4.6,0-8.2-0.9-11.1-2.8c-2.8-1.9-5.1-4.4-6.8-7.6s-2.5-6.9-2.5-11.1
	c0-6.3,1.8-11.4,5.4-15.4c3.6-3.9,8.2-5.9,13.9-5.9c5.5,0,9.9,1.9,13.1,5.8c3.3,3.8,4.9,9,4.9,15.4L391.7,46.2L391.7,46.2z
	 M362.8,41.3h20.8c-0.2-3.3-1.2-5.8-2.9-7.6c-1.7-1.8-4.1-2.7-7-2.7s-5.3,0.9-7.2,2.7C364.6,35.5,363.4,38,362.8,41.3z"/>
</svg>
